<svg width="27" height="25" viewBox="0 0 27 25" fill="none" xmlns="http://www.w3.org/2000/svg">
<path d="M24.6317 1.04568L1.58188 10.6391C1.58188 10.6391 0.492184 11.0351 0.576421 11.7658C0.663097 12.4977 1.55227 12.8326 1.55227 12.8326L7.3521 14.9031C7.3521 14.9031 9.10282 20.9932 9.44724 22.1519C9.79168 23.3074 10.0682 23.3348 10.0682 23.3348C10.3891 23.4828 10.6808 23.2472 10.6808 23.2472L14.4281 19.6236L20.2684 24.3737C21.8481 25.1047 22.4231 23.5819 22.4231 23.5819L26.5267 1.6247C26.5267 0.162313 24.6321 1.04512 24.6321 1.04512L24.6317 1.04568ZM20.5509 21.8164L14.3033 16.7356L12.3645 18.6099L12.7908 14.6224L21.1189 6.72935L9.76666 13.4689L4.7311 11.6716L23.9428 3.67487L20.5509 21.8164Z" fill="white"/>
</svg>
