<svg width="22" height="18" viewBox="0 0 22 18" fill="none" xmlns="http://www.w3.org/2000/svg">
<path d="M7.90833 16.756C7.27982 16.756 7.39263 16.5142 7.16701 15.9179L5.32983 9.85848L16.7397 2.73539L18.0773 3.08993L16.9653 6.11966L7.90833 16.756Z" fill="#B94065"/>
<path d="M7.9082 16.756C8.39167 16.756 8.60117 16.5303 8.87514 16.2725C9.29414 15.8696 14.6768 10.632 14.6768 10.632L11.3731 9.82625L8.31109 11.7601L7.9082 16.5948V16.756Z" fill="#8C2545"/>
<path d="M8.23057 11.8246L16.0305 17.5778C16.9169 18.0613 17.5615 17.8196 17.7871 16.756L20.9619 1.80068C21.2842 0.49532 20.4623 -0.0848403 19.6082 0.301934L0.978553 7.48949C-0.294579 8.00519 -0.278464 8.71427 0.752934 9.02047L5.53927 10.5192L16.6107 3.54117C17.1264 3.21886 17.6098 3.39613 17.2231 3.75067L8.23057 11.8246Z" fill="url(#paint0_linear_24_26)"/>
<defs>
<linearGradient id="paint0_linear_24_26" x1="12.9026" y1="8.49752" x2="16.9315" y2="14.9438" gradientUnits="userSpaceOnUse">
<stop stop-color="#D95A81"/>
<stop offset="1" stop-color="#F07B9F"/>
</linearGradient>
</defs>
</svg>
