<svg width="27" height="25" viewBox="0 0 27 25" fill="none" xmlns="http://www.w3.org/2000/svg">
<path d="M24.8717 1.26175L1.82187 10.8551C1.82187 10.8551 0.732175 11.2512 0.816411 11.9819C0.903087 12.7138 1.79226 13.0487 1.79226 13.0487L7.59209 15.1192C7.59209 15.1192 9.34281 21.2092 9.68723 22.3679C10.0317 23.5234 10.3082 23.5508 10.3082 23.5508C10.6291 23.6989 10.9208 23.4633 10.9208 23.4633L14.668 19.8396L20.5084 24.5898C22.0881 25.3208 22.6631 23.798 22.6631 23.798L26.7667 1.84076C26.7667 0.378377 24.8721 1.26118 24.8721 1.26118L24.8717 1.26175ZM20.7909 22.0324L14.5433 16.9516L12.6045 18.8259L13.0308 14.8384L21.3589 6.94541L10.0066 13.6849L4.9711 11.8876L24.1828 3.89093L20.7909 22.0324Z" fill="white"/>
</svg>
