<svg width="22" height="19" viewBox="0 0 22 19" fill="none" xmlns="http://www.w3.org/2000/svg">
<path d="M21.0026 2.81114C20.2327 3.15013 19.3948 3.3941 18.5318 3.48911C19.4278 2.9458 20.0988 2.08746 20.4188 1.07512C19.5781 1.58563 18.657 1.9436 17.6964 2.13317C16.8849 1.24768 15.7493 0.746295 14.5614 0.748973C12.1837 0.748973 10.2714 2.71612 10.2714 5.13012C10.2714 5.4691 10.3117 5.80809 10.3771 6.13424C6.81684 5.9442 3.64153 4.20818 1.53053 1.55021C1.14588 2.22078 0.944313 2.9843 0.946795 3.76133C0.946795 5.28163 1.70414 6.62217 2.85903 7.41057C2.17843 7.38321 1.51378 7.19228 0.919118 6.8533V6.90723C0.919118 9.03617 2.39355 10.8004 4.35862 11.2062C3.98966 11.304 3.6101 11.3541 3.22889 11.3551C2.94961 11.3551 2.68542 11.3269 2.41871 11.2884C2.96219 13.0244 4.54481 14.2853 6.42936 14.3264C4.95493 15.5052 3.10812 16.1985 1.10279 16.1985C0.742991 16.1985 0.410867 16.1857 0.0661621 16.1446C1.96833 17.3901 4.22527 18.1092 6.65581 18.1092C14.5463 18.1092 18.8639 11.4373 18.8639 5.6463C18.8639 5.45626 18.8639 5.26623 18.8513 5.07619C19.6867 4.45214 20.4188 3.67915 21.0026 2.81114Z" fill="#D95A81"/>
</svg>
