<svg width="320" height="319" viewBox="0 0 320 319" fill="none" xmlns="http://www.w3.org/2000/svg">
<g filter="url(#filter0_dd_241_3)">
<circle cx="160.207" cy="145.34" r="99.3152" fill="white"/>
<circle cx="160.207" cy="145.34" r="94.3152" stroke="#627EEA" stroke-width="10"/>
</g>
<g clip-path="url(#clip0_241_3)">
<path d="M160.208 208.339C194.725 208.339 222.708 180.133 222.708 145.339C222.708 110.545 194.725 82.3389 160.208 82.3389C125.69 82.3389 97.7075 110.545 97.7075 145.339C97.7075 180.133 125.69 208.339 160.208 208.339Z" fill="#627EEA"/>
<path d="M162.153 98.0889V133.014L191.438 146.205L162.153 98.0889Z" fill="white" fill-opacity="0.602"/>
<path d="M162.153 98.0889L132.864 146.205L162.153 133.014V98.0889Z" fill="white"/>
<path d="M162.153 168.838V192.569L191.458 151.702L162.153 168.838Z" fill="white" fill-opacity="0.602"/>
<path d="M162.153 192.569V168.834L132.864 151.702L162.153 192.569Z" fill="white"/>
<path d="M162.153 163.345L191.438 146.205L162.153 133.022V163.345Z" fill="white" fill-opacity="0.2"/>
<path d="M132.864 146.205L162.153 163.345V133.022L132.864 146.205Z" fill="white" fill-opacity="0.602"/>
</g>
<defs>
<filter id="filter0_dd_241_3" x="0.89209" y="0.0244141" width="318.63" height="318.63" filterUnits="userSpaceOnUse" color-interpolation-filters="sRGB">
<feFlood flood-opacity="0" result="BackgroundImageFix"/>
<feColorMatrix in="SourceAlpha" type="matrix" values="0 0 0 0 0 0 0 0 0 0 0 0 0 0 0 0 0 0 127 0" result="hardAlpha"/>
<feMorphology radius="4" operator="erode" in="SourceAlpha" result="effect1_dropShadow_241_3"/>
<feOffset dy="14"/>
<feGaussianBlur stdDeviation="32"/>
<feColorMatrix type="matrix" values="0 0 0 0 0.0941176 0 0 0 0 0.152941 0 0 0 0 0.294118 0 0 0 0.12 0"/>
<feBlend mode="normal" in2="BackgroundImageFix" result="effect1_dropShadow_241_3"/>
<feColorMatrix in="SourceAlpha" type="matrix" values="0 0 0 0 0 0 0 0 0 0 0 0 0 0 0 0 0 0 127 0" result="hardAlpha"/>
<feMorphology radius="6" operator="erode" in="SourceAlpha" result="effect2_dropShadow_241_3"/>
<feOffset dy="8"/>
<feGaussianBlur stdDeviation="11"/>
<feColorMatrix type="matrix" values="0 0 0 0 0.0941176 0 0 0 0 0.152941 0 0 0 0 0.294118 0 0 0 0.12 0"/>
<feBlend mode="normal" in2="effect1_dropShadow_241_3" result="effect2_dropShadow_241_3"/>
<feBlend mode="normal" in="SourceGraphic" in2="effect2_dropShadow_241_3" result="shape"/>
</filter>
<clipPath id="clip0_241_3">
<rect width="125" height="126" fill="white" transform="translate(97.7075 82.3389)"/>
</clipPath>
</defs>
</svg>
